# xmcd
#
# Track frame offsets: 
#        150
#        19017
#        43747
#        66645
#        86227
#        107257
#        126352
#        169397
#        204503
#        228953
#        248988
#
# Disc length: 3729 seconds
#
# Revision: 2
# Processed by: cddbd v1.5.2PL0 Copyright (c) Steve Scherf et al.
# Submitted via: ExactAudioCopy v0.95b4
#
DISCID=9a0e8f0b
DTITLE=Rata Blanca - El Camino Del Fuego
DYEAR=2001
DGENRE=Heavy Metal
TTITLE0=El Amo Del Camino
TTITLE1=Volviendo A Casa
TTITLE2=La Canción Del Guerrero
TTITLE3=Abeja Reina
TTITLE4=Lluvia Purpura
TTITLE5=Señora Furia
TTITLE6=Sinfonía Fantástica
TTITLE7=Cuando La Luz Oscurece
TTITLE8=En Nombre De Dios?
TTITLE9=Caballo Salvaje
TTITLE10=Mujer Amante [Versión Acustica]
EXTD=YEAR: 2001
EXTT0=
EXTT1=
EXTT2=
EXTT3=
EXTT4=
EXTT5=
EXTT6=
EXTT7=
EXTT8=
EXTT9=
EXTT10=
PLAYORDER=
